<svg width="175" height="49" viewBox="0 0 175 49" fill="none" xmlns="http://www.w3.org/2000/svg">
<path d="M17.984 48.664C14.4427 48.664 11.0507 48.1947 7.808 47.256C4.56533 46.3173 1.96267 45.1227 0 43.672L4.224 35.672C6.272 37.1653 8.576 38.3173 11.136 39.128C13.696 39.9387 16.32 40.344 19.008 40.344C21.8667 40.344 24.128 39.8747 25.792 38.936C27.456 37.9973 28.288 36.7173 28.288 35.096C28.288 33.7733 27.6267 32.7707 26.304 32.088C24.9813 31.3627 22.8693 30.5947 19.968 29.784C17.0667 28.9307 14.6987 28.12 12.864 27.352C11.0293 26.5413 9.42933 25.3467 8.064 23.768C6.74133 22.1893 6.08 20.0987 6.08 17.496C6.08 14.4667 6.912 11.8 8.576 9.49599C10.2827 7.19199 12.672 5.42132 15.744 4.18399C18.8587 2.94666 22.464 2.32799 26.56 2.32799C29.5893 2.32799 32.448 2.66932 35.136 3.35199C37.824 3.99199 40.128 4.93066 42.048 6.16799L38.144 14.104C36.48 12.952 34.6027 12.0987 32.512 11.544C30.4213 10.9467 28.2453 10.648 25.984 10.648C23.04 10.648 20.7147 11.16 19.008 12.184C17.3013 13.208 16.448 14.5307 16.448 16.152C16.448 17.1333 16.8107 17.9653 17.536 18.648C18.2613 19.288 19.1787 19.8213 20.288 20.248C21.3973 20.632 22.9547 21.1013 24.96 21.656C27.8187 22.424 30.1653 23.2133 32 24.024C33.8347 24.792 35.392 25.944 36.672 27.48C37.9947 28.9733 38.656 30.9573 38.656 33.432C38.656 36.504 37.8027 39.192 36.096 41.496C34.3893 43.7573 31.9787 45.528 28.864 46.808C25.7493 48.0453 22.1227 48.664 17.984 48.664Z" fill="#589BFF"/>
<path d="M99.5005 13.464L95.9165 32.6C94.8925 37.8907 92.8232 41.8587 89.7085 44.504C86.6365 47.1067 82.7325 48.408 77.9965 48.408C75.4792 48.408 73.2605 47.9813 71.3405 47.128C69.4205 46.232 67.9058 44.9947 66.7965 43.416C65.1325 45.1227 63.2338 46.3813 61.1005 47.192C59.0098 48.0027 56.8338 48.408 54.5725 48.408C50.0925 48.408 46.6152 47.256 44.1405 44.952C41.7085 42.6053 40.4925 39.4907 40.4925 35.608C40.4925 34.456 40.6205 33.24 40.8765 31.96L44.4605 13.464H54.1245L50.6045 31.704C50.3912 32.8987 50.2845 33.8587 50.2845 34.584C50.2845 38.2107 52.1832 40.024 55.9805 40.024C58.0285 40.024 59.6712 39.384 60.9085 38.104C62.1458 36.824 63.0418 34.84 63.5965 32.152L67.1165 13.464H76.7805L73.3245 31.704C73.1112 32.8987 73.0045 33.8587 73.0045 34.584C73.0045 38.2107 74.9032 40.024 78.7005 40.024C80.7912 40.024 82.4552 39.3627 83.6925 38.04C84.9298 36.7173 85.8258 34.648 86.3805 31.832L89.8365 13.464H99.5005Z" fill="#589BFF"/>
<path d="M104.333 13.464H114.254L107.406 47.896H97.4855L104.333 13.464Z" fill="#589BFF"/>
<path d="M124.993 35.736C124.908 36.0773 124.865 36.5467 124.865 37.144C124.865 39.3627 126.06 40.472 128.449 40.472C129.814 40.472 131.18 40.0667 132.545 39.256L134.017 46.36C131.798 47.7253 128.918 48.408 125.377 48.408C122.134 48.408 119.532 47.5547 117.569 45.848C115.649 44.1413 114.689 41.7947 114.689 38.808C114.689 37.9547 114.796 36.952 115.009 35.8L120.961 5.84799H130.945L129.281 14.232H137.793L136.257 21.912H127.745L124.993 35.736Z" fill="#589BFF"/>
<path d="M162.248 12.952C166.088 12.952 169.139 13.976 171.4 16.024C173.661 18.072 174.792 20.9733 174.792 24.728C174.792 26.0933 174.643 27.4587 174.344 28.824L170.504 47.896H160.52L164.232 29.464C164.403 28.7387 164.488 27.9493 164.488 27.096C164.488 25.304 163.997 23.9387 163.016 23C162.035 22.0613 160.563 21.592 158.6 21.592C156.04 21.592 153.907 22.3387 152.2 23.832C150.536 25.2827 149.405 27.48 148.808 30.424L145.352 47.896H135.368L144.84 0.40799H154.824L151.624 16.6C154.568 14.168 158.109 12.952 162.248 12.952Z" fill="#589BFF"/>
<path d="M114.457 9.408H105.369L111.193 0L114.457 9.408Z" fill="#589BFF"/>
</svg>
